<mxfile host="app.diagrams.net" modified="2023-03-28T19:08:01.024Z" agent="Mozilla/5.0 (Windows NT 10.0; Win64; x64) AppleWebKit/537.36 (KHTML, like Gecko) Chrome/111.0.0.0 Safari/537.36" etag="I1DdPHFEdDKuTZe2wP0P" version="21.1.1" type="github">
  <diagram name="Page-1" id="XkA7_Uj0GpwiEdQK1kg1">
    <mxGraphModel dx="794" dy="470" grid="1" gridSize="10" guides="1" tooltips="1" connect="1" arrows="1" fold="1" page="1" pageScale="1" pageWidth="850" pageHeight="1100" math="0" shadow="0">
      <root>
        <mxCell id="0" />
        <mxCell id="1" parent="0" />
        <mxCell id="OSzI1onzkFeyZ0XbZdmu-1" value="L Engine" style="whiteSpace=wrap;html=1;aspect=fixed;" parent="1" vertex="1">
          <mxGeometry x="280" y="200" width="80" height="80" as="geometry" />
        </mxCell>
        <mxCell id="OSzI1onzkFeyZ0XbZdmu-2" value="R Engine" style="whiteSpace=wrap;html=1;aspect=fixed;" parent="1" vertex="1">
          <mxGeometry x="400" y="200" width="80" height="80" as="geometry" />
        </mxCell>
        <mxCell id="OSzI1onzkFeyZ0XbZdmu-5" value="Main Comms." style="rounded=0;whiteSpace=wrap;html=1;" parent="1" vertex="1">
          <mxGeometry x="300" y="290" width="160" height="40" as="geometry" />
        </mxCell>
        <mxCell id="OSzI1onzkFeyZ0XbZdmu-9" value="Air Lock" style="rounded=0;whiteSpace=wrap;html=1;" parent="1" vertex="1">
          <mxGeometry x="300" y="340" width="60" height="60" as="geometry" />
        </mxCell>
        <mxCell id="OSzI1onzkFeyZ0XbZdmu-10" value="" style="endArrow=none;html=1;rounded=0;exitX=0.5;exitY=0;exitDx=0;exitDy=0;entryX=0.5;entryY=1;entryDx=0;entryDy=0;" parent="1" source="OSzI1onzkFeyZ0XbZdmu-5" edge="1" target="tudrLYoHOd8Z0DQ_07g_-4">
          <mxGeometry width="50" height="50" relative="1" as="geometry">
            <mxPoint x="375" y="291" as="sourcePoint" />
            <mxPoint x="380" y="241" as="targetPoint" />
          </mxGeometry>
        </mxCell>
        <mxCell id="OSzI1onzkFeyZ0XbZdmu-11" value="" style="endArrow=none;html=1;rounded=0;entryX=0;entryY=0.5;entryDx=0;entryDy=0;exitX=1;exitY=0.5;exitDx=0;exitDy=0;" parent="1" source="OSzI1onzkFeyZ0XbZdmu-1" target="OSzI1onzkFeyZ0XbZdmu-2" edge="1">
          <mxGeometry width="50" height="50" relative="1" as="geometry">
            <mxPoint x="360" y="290" as="sourcePoint" />
            <mxPoint x="410" y="240" as="targetPoint" />
          </mxGeometry>
        </mxCell>
        <mxCell id="OSzI1onzkFeyZ0XbZdmu-15" value="" style="endArrow=none;html=1;rounded=0;exitX=0.5;exitY=0;exitDx=0;exitDy=0;" parent="1" source="OSzI1onzkFeyZ0XbZdmu-9" edge="1">
          <mxGeometry width="50" height="50" relative="1" as="geometry">
            <mxPoint x="260" y="540" as="sourcePoint" />
            <mxPoint x="330" y="330" as="targetPoint" />
          </mxGeometry>
        </mxCell>
        <mxCell id="OSzI1onzkFeyZ0XbZdmu-16" value="Sleeping Quarters" style="rounded=0;whiteSpace=wrap;html=1;" parent="1" vertex="1">
          <mxGeometry x="370" y="340" width="90" height="60" as="geometry" />
        </mxCell>
        <mxCell id="OSzI1onzkFeyZ0XbZdmu-18" value="" style="endArrow=none;html=1;rounded=0;entryX=0;entryY=0.5;entryDx=0;entryDy=0;exitX=1;exitY=0.5;exitDx=0;exitDy=0;" parent="1" source="OSzI1onzkFeyZ0XbZdmu-9" target="OSzI1onzkFeyZ0XbZdmu-16" edge="1">
          <mxGeometry width="50" height="50" relative="1" as="geometry">
            <mxPoint x="270" y="530" as="sourcePoint" />
            <mxPoint x="320" y="480" as="targetPoint" />
          </mxGeometry>
        </mxCell>
        <mxCell id="OSzI1onzkFeyZ0XbZdmu-20" value="" style="endArrow=none;html=1;rounded=0;entryX=0.5;entryY=0;entryDx=0;entryDy=0;" parent="1" edge="1">
          <mxGeometry width="50" height="50" relative="1" as="geometry">
            <mxPoint x="416" y="331" as="sourcePoint" />
            <mxPoint x="416" y="340" as="targetPoint" />
          </mxGeometry>
        </mxCell>
        <mxCell id="tudrLYoHOd8Z0DQ_07g_-4" value="" style="rounded=0;whiteSpace=wrap;html=1;" vertex="1" parent="1">
          <mxGeometry x="370" y="208" width="20" height="20" as="geometry" />
        </mxCell>
        <mxCell id="tudrLYoHOd8Z0DQ_07g_-8" style="edgeStyle=orthogonalEdgeStyle;rounded=0;orthogonalLoop=1;jettySize=auto;html=1;exitX=0;exitY=0.5;exitDx=0;exitDy=0;entryX=0.5;entryY=0;entryDx=0;entryDy=0;" edge="1" parent="1" source="tudrLYoHOd8Z0DQ_07g_-7" target="tudrLYoHOd8Z0DQ_07g_-4">
          <mxGeometry relative="1" as="geometry" />
        </mxCell>
        <mxCell id="tudrLYoHOd8Z0DQ_07g_-7" value="Nucellar Reactor" style="text;html=1;strokeColor=none;fillColor=none;align=center;verticalAlign=middle;whiteSpace=wrap;rounded=0;" vertex="1" parent="1">
          <mxGeometry x="399" y="150" width="60" height="30" as="geometry" />
        </mxCell>
        <mxCell id="tudrLYoHOd8Z0DQ_07g_-9" value="" style="endArrow=none;html=1;rounded=0;entryX=0.5;entryY=1;entryDx=0;entryDy=0;" edge="1" parent="1">
          <mxGeometry width="50" height="50" relative="1" as="geometry">
            <mxPoint x="415" y="410" as="sourcePoint" />
            <mxPoint x="415" y="401" as="targetPoint" />
          </mxGeometry>
        </mxCell>
        <mxCell id="tudrLYoHOd8Z0DQ_07g_-10" value="" style="endArrow=none;html=1;rounded=0;" edge="1" parent="1">
          <mxGeometry width="50" height="50" relative="1" as="geometry">
            <mxPoint x="330" y="410" as="sourcePoint" />
            <mxPoint x="330" y="400" as="targetPoint" />
          </mxGeometry>
        </mxCell>
        <mxCell id="tudrLYoHOd8Z0DQ_07g_-1" value="Cockpit&amp;nbsp;" style="triangle;whiteSpace=wrap;html=1;rotation=90;" vertex="1" parent="1">
          <mxGeometry x="347.5" y="361.5" width="65" height="160" as="geometry" />
        </mxCell>
      </root>
    </mxGraphModel>
  </diagram>
</mxfile>
